<svg xmlns="http://www.w3.org/2000/svg" width="42" height="42" viewBox="0 0 42 42">
  <path fill="url(#a)" d="M33.2,19.3c-0.1-3.1-2.7-5.6-5.9-5.6c-0.8,0-1.6,0.2-2.4,0.5c-0.4-3.3-3.2-5.9-6.6-5.9c-3.7,0-6.7,3-6.7,6.7c0,0.4,0,0.8,0.1,1.2c-2.8,0.5-4.9,2.9-4.9,5.8c0,3.2,2.6,5.8,5.8,5.8h17.9c3.9,0,7.1-3.2,7.1-7.1C37.6,22.2,35.7,19.9,33.2,19.3z"/>
  <path fill="none" stroke="#6B5E51" stroke-width="2" d="M33.2,19.3c-0.1-3.1-2.7-5.6-5.9-5.6c-0.8,0-1.6,0.2-2.4,0.5c-0.4-3.3-3.2-5.9-6.6-5.9c-3.7,0-6.7,3-6.7,6.7c0,0.4,0,0.8,0.1,1.2c-2.8,0.5-4.9,2.9-4.9,5.8c0,3.2,2.6,5.8,5.8,5.8h17.9c3.9,0,7.1-3.2,7.1-7.1C37.6,22.2,35.7,19.9,33.2,19.3z"/>
  <defs>
    <linearGradient id="a" x1="50%" x2="50%" y1="0%" y2="100%">
      <stop offset="0%" stop-color="#FFD700"/>
      <stop offset="100%" stop-color="#FFECB3"/>
    </linearGradient>
  </defs>
</svg>